<svg xmlns:xlink="http://www.w3.org/1999/xlink" xmlns="http://www.w3.org/2000/svg" width="24" height="24" viewBox="0 0 24 24" fill="currentColor"><path fill-rule="evenodd" clip-rule="evenodd" d="M.933 12C.933 18.1 5.9 23.067 12 23.067c6.102 0 11.067-4.966 11.067-11.067S18.102.933 12 .933C5.9.933.933 5.9.933 12zM0 12c0 6.617 5.383 12 12 12s12-5.383 12-12S18.617 0 12 0 0 5.383 0 12z" fill="#FFFFFF"></path><path fill-rule="evenodd" clip-rule="evenodd" d="M8.497 18.282h-.338c-1.495 0-2.712-1.084-2.712-2.415V9.784c0-.631.082-1.59.313-2.39.357-1.233.928-1.627 1.411-1.713l.288-.44a.394.394 0 01.33-.18h1.53c.125 0 .242.059.316.159l.341.458c1.291.203 1.57 2.318 1.57 4.106v2.9c0 .22-.177.4-.395.4a.398.398 0 01-.395-.4v-2.9c0-2.049-.379-3.321-.988-3.321a.393.393 0 01-.316-.16l-.329-.441H8.001l-.275.421a.394.394 0 01-.33.18c-.79 0-1.158 1.981-1.158 3.321v6.083c0 .89.861 1.613 1.92 1.613h.339c.218 0 .395.18.395.401 0 .221-.177.4-.395.4z" fill="#FFFFFF"></path><path fill-rule="evenodd" clip-rule="evenodd" d="M9.63 12.706a.398.398 0 01-.394-.401V8.716c0-.22.177-.4.395-.4.218 0 .395.18.395.4v3.589c0 .221-.177.4-.395.4zM8.562 5.461c.702 0 1.271-.286 1.271-.638 0-.353-.569-.639-1.27-.639-.702 0-1.272.286-1.272.639 0 .352.57.638 1.271.638zM8.764 15.398a.392.392 0 01-.298-.137.404.404 0 01.038-.565l5.022-4.443a.395.395 0 01.163-.087 7.776 7.776 0 012.16-.187c1.583.093 2.728.74 3.308 1.872a.403.403 0 01-.167.54.391.391 0 01-.533-.17c-1-1.946-3.94-1.416-4.487-1.298L9.024 15.3a.39.39 0 01-.26.098z" fill="#FFFFFF"></path><path fill-rule="evenodd" clip-rule="evenodd" d="M8.764 19.841a.392.392 0 01-.237-.08.403.403 0 01-.158-.32v-4.443a.4.4 0 01.285-.385l10.043-2.962a.39.39 0 01.347.064c.1.076.159.195.159.32v4.444a.4.4 0 01-.285.384L8.875 19.826a.387.387 0 01-.11.015zm.396-4.543v3.609l9.252-2.729V12.57L9.16 15.298z" fill="#FFFFFF"></path></svg>