<svg xmlns:xlink="http://www.w3.org/1999/xlink" xmlns="http://www.w3.org/2000/svg" width="24" height="24" viewBox="0 0 24 24" fill="currentColor"><path fill-rule="evenodd" clip-rule="evenodd" d="M.933 12C.933 18.1 5.9 23.067 12 23.067c6.102 0 11.067-4.966 11.067-11.067S18.102.933 12 .933C5.9.933.933 5.9.933 12zM0 12c0 6.617 5.383 12 12 12s12-5.383 12-12S18.617 0 12 0 0 5.383 0 12z" fill="#FFFFFF"></path><path fill-rule="evenodd" clip-rule="evenodd" d="M12.249 4.667c-1.396 0-2.82 1.003-3.908 2.753-1.08 1.736-1.674 3.953-1.674 6.242 0 1.544.491 2.99 1.384 4.072 1.03 1.25 2.482 1.91 4.198 1.91 1.662 0 3.145-.69 4.175-1.943.894-1.088 1.407-2.56 1.407-4.039 0-3.263-.963-5.36-1.77-6.545-1.046-1.534-2.471-2.45-3.812-2.45zm0 .886c1.973 0 4.706 2.815 4.706 8.1 0 2.475-1.65 5.104-4.706 5.104-1.446 0-2.664-.55-3.523-1.592-.763-.925-1.183-2.172-1.183-3.511 0-4.562 2.53-8.1 4.706-8.1z" fill="#FFFFFF"></path><path fill-rule="evenodd" clip-rule="evenodd" d="M8.784 13.299a.424.424 0 01-.421-.476c.077-.622.205-1.234.38-1.819.53-1.76 1.469-3.219 2.579-4.003a.424.424 0 01.49.692c-.945.667-1.788 1.996-2.256 3.555-.162.54-.28 1.104-.352 1.68a.424.424 0 01-.42.37z" fill="#FFFFFF"></path></svg>