<svg xmlns:xlink="http://www.w3.org/1999/xlink" xmlns="http://www.w3.org/2000/svg" width="24" height="24" viewBox="0 0 24 24" fill="currentColor"><path fill-rule="evenodd" clip-rule="evenodd" d="M.933 12C.933 18.1 5.9 23.067 12 23.067c6.102 0 11.067-4.966 11.067-11.067S18.102.933 12 .933C5.9.933.933 5.9.933 12zM0 12c0 6.617 5.383 12 12 12s12-5.383 12-12S18.617 0 12 0 0 5.383 0 12z" fill="#FFFFFF"></path><mask id="iw_onion_svg__a" maskUnits="userSpaceOnUse" x="5" y="3" width="13" height="18" fill="#FFFFFF"><path fill-rule="evenodd" clip-rule="evenodd" d="M5.167 3.833h12.831v16.755H5.167V3.833z" fill="#FFFFFF"></path></mask><g mask="url(#iw_onion_svg__a)" fill="#FFFFFF"><path fill-rule="evenodd" clip-rule="evenodd" d="M15.956 16.615c-1.33 1.284-3.65 2.022-5.704 1.126a6.006 6.006 0 002.224-1.405 5.665 5.665 0 001.106-1.508c.28-.58.436-1.171.55-1.784.095-.614.126-1.24.068-1.858-.063-.613-.17-1.199-.258-1.776-.07-.567-.156-1.176-.023-1.687.015-.061.037-.122.064-.181.014.026.03.049.044.079.36.781.92 1.426 1.464 2.05.485.557.943 1.083 1.267 1.697.977 1.855.678 3.816-.802 5.247zm-9.962-3.079c-.382-1.41-.071-2.815.899-4.061a4.527 4.527 0 012.88-1.699c.39-.057.78-.06 1.194-.062.33-.002.661-.004.991-.034.268-.024.547-.112.817-.196.524-.163.816-.223 1.008-.136-.059.084-.122.163-.167.26-.248.627-.213 1.245-.19 1.854.093 1.218.274 2.343.05 3.472-.173 1.138-.615 2.181-1.38 3.046a7.383 7.383 0 01-2.062 1.656c-.08-.04-.161-.077-.241-.122l-.177.309.133-.331c-1.859-.746-3.297-2.261-3.755-3.956zm11.353-2.48c-.36-.681-.865-1.262-1.354-1.823-.532-.61-1.032-1.187-1.352-1.875.434-1.353 1.407-2.301 2.604-3.017-1.146.26-1.896.712-2.428 1.214a4.697 4.697 0 011.072-1.722c-.955.354-1.473.92-1.775 1.53-.103-.426-.302-.892-.679-1.407.318.978.264 1.771-.167 2.719a4.76 4.76 0 00-.691.173c-.248.077-.482.15-.679.168-.311.028-.623.03-.936.03-.418.004-.851.007-1.285.07a5.202 5.202 0 00-3.31 1.95c-1.104 1.418-1.456 3.023-1.018 4.644.478 1.766 1.901 3.344 3.754 4.216-.306.625-.745 1.182-1.562 1.59 1.081-.208 1.613-.524 1.904-.846.025.4.244.98.976 1.918-.41-.88-.396-1.546-.234-2.154a5.6 5.6 0 002.027.379c1.511 0 3.038-.59 4.205-1.719 1.706-1.648 2.052-3.905.928-6.038z" fill="#FFFFFF"></path></g><path fill-rule="evenodd" clip-rule="evenodd" d="M8.794 13.37c-.21-.313-.406-.62-.478-.932a1.404 1.404 0 01.086-.925c.26-.61.84-1.041 1.537-1.302.718-.257 1.438-.565 2.196-.755-.801-.082-1.58.09-2.356.262-.783.172-1.624.688-1.989 1.534-.172.418-.226.912-.081 1.36.15.438.405.786.677 1.08.524.607 1.16 1.043 1.424 1.797.02-.402-.15-.802-.352-1.146-.208-.348-.448-.662-.664-.972z" fill="#FFFFFF"></path><path fill-rule="evenodd" clip-rule="evenodd" d="M11.614 10.168a3.278 3.278 0 00-.149.874c-.03.582-.01 1.08-.176 1.556-.142.486-.393.957-.653 1.436l-.827 1.454a5.57 5.57 0 001.255-1.163c.363-.443.676-.95.862-1.534.085-.29.135-.609.132-.91-.01-.3-.034-.583-.073-.854-.063-.54-.119-1.05.15-1.57-.241.16-.415.425-.52.71z" fill="#FFFFFF"></path><path fill-rule="evenodd" clip-rule="evenodd" d="M10.351 12.112c-.088.236-.223.49-.32.784a2.754 2.754 0 00-.052-.213c-.081-.283-.12-.443-.076-.63a.91.91 0 01.265-.513c.106-.109.254-.216.41-.33-.01.04-.021.082-.028.12-.06.326-.088.54-.199.782zm.744-.274c.004-.18 0-.339-.025-.489-.027-.303-.114-.544.014-.856-.233.072-.365.29-.445.513a1.36 1.36 0 00-.752.098c-.32.132-.578.473-.64.832-.028.182-.02.372.036.552.065.17.138.306.226.42.157.242.352.372.382.682.018-.014.023-.039.038-.056.006.138.029.274.09.397.13-.31.289-.524.46-.763.174-.233.354-.488.49-.807.06-.163.11-.338.126-.523z" fill="#FFFFFF"></path><path fill-rule="evenodd" clip-rule="evenodd" d="M9.397 16.391c-.436-1.039-1.428-1.736-1.967-2.59-.563-.842-.457-1.985-.026-2.885.212-.454.559-.814.98-1.086.422-.278.935-.436 1.457-.59.931-.254 1.974-.46 2.83-1-.113.78-.088 1.572-.084 2.337 0 .81-.017 1.607-.222 2.345-.189.738-.573 1.426-1.078 2.02a5.901 5.901 0 01-1.89 1.449zm3.612-3.297c.223-.855.204-1.727.096-2.55-.098-.791-.26-1.55-.397-2.33.087-.056.175-.113.258-.176-.09.04-.18.073-.27.107-.003-.015-.007-.029-.009-.044l-.006.05c-.946.353-1.946.388-2.958.583-.557.1-1.13.254-1.664.555a3.22 3.22 0 00-1.253 1.333 3.978 3.978 0 00-.388 1.76c.004.6.207 1.249.587 1.715.736.957 1.772 1.415 2.416 2.344-.007-.017-.016-.032-.024-.049 1.672-.211 3.16-1.595 3.612-3.298z" fill="#FFFFFF"></path></svg>