<svg xmlns:xlink="http://www.w3.org/1999/xlink" xmlns="http://www.w3.org/2000/svg" width="24" height="24" viewBox="0 0 24 24" fill="currentColor"><path fill-rule="evenodd" clip-rule="evenodd" d="M.933 12C.933 18.1 5.9 23.067 12 23.067S23.067 18.1 23.067 12 18.102.933 12 .933C5.9.933.933 5.9.933 12zM0 12c0 6.617 5.383 12 12 12s12-5.383 12-12S18.617 0 12 0 0 5.383 0 12z" fill="#FFFFFF"></path><path fill-rule="evenodd" clip-rule="evenodd" d="M12.23 18.82a3.739 3.739 0 01-2.4-.867c-.174.026-.35.038-.52.038-1.77.001-2.884-1.308-3.204-2.605-.38-1.542.285-3.02 1.697-3.76.81-.527 2.788-1.804 3.639-3.619l.114-.242h1.35l.114.242c.851 1.815 2.828 3.092 3.673 3.637 1.378.723 2.044 2.2 1.663 3.742-.32 1.296-1.435 2.605-3.204 2.605-.17 0-.345-.012-.52-.038a3.735 3.735 0 01-2.401.867zm-2.143-1.775l.159.149c1.08 1.005 2.889 1.006 3.97 0l.16-.15.212.043c1.604.327 2.673-.791 2.948-1.904.227-.916.012-2.137-1.27-2.81-.9-.58-2.888-1.864-3.89-3.765h-.29c-1.003 1.901-2.989 3.184-3.857 3.747-1.316.69-1.53 1.913-1.303 2.83.274 1.11 1.34 2.23 2.947 1.902l.214-.042z" fill="#FFFFFF"></path><path fill-rule="evenodd" clip-rule="evenodd" d="M14.768 17.59a3.686 3.686 0 01-2.58 1.077h-.023v-.655c.745 0 1.59-.392 2.113-.914a2.965 2.965 0 00.875-2.112c.368 1.414.15 2.069-.385 2.603zM9.69 17.62c-1.646-1.366-1.028-4.271.49-4.715-1.165 1.164-.963 3.277.202 4.442l-.693.273zM12.667 8.187c.339 1.816.826 3.493 1.79 4.905-2.201-1.686-2.343-3.608-2.545-4.905h.755z" fill="#FFFFFF"></path><path fill-rule="evenodd" clip-rule="evenodd" d="M11.787 8.512c-.227 1.19-.59 2.292-1.394 3.218 1.718-.978 2.07-1.69 2.07-3.218h-.676zM12.94 8.384c-.122-1.42.441-2.639 1.295-3.717-1.949 1.288-2.073 2.757-2.252 3.75l.956-.033z" fill="#FFFFFF"></path><path fill-rule="evenodd" clip-rule="evenodd" d="M11.492 8.161c.087-1.036-.125-1.78-.748-2.568 1.423.941 1.514 2.014 1.645 2.738l-.897-.17z" fill="#FFFFFF"></path><path fill-rule="evenodd" clip-rule="evenodd" d="M12.927 8.384c-.638-1.42-.517-2.639-.057-3.717-1.479 1.288-1.07 2.757-.887 3.75l.944-.033z" fill="#FFFFFF"></path></svg>