<svg xmlns:xlink="http://www.w3.org/1999/xlink" xmlns="http://www.w3.org/2000/svg" width="24" height="24" viewBox="0 0 24 24" fill="currentColor"><path fill-rule="evenodd" clip-rule="evenodd" d="M.933 12C.933 18.1 5.9 23.067 12 23.067S23.067 18.1 23.067 12 18.102.933 12 .933C5.9.933.933 5.9.933 12zM0 12c0 6.617 5.383 12 12 12s12-5.383 12-12S18.617 0 12 0 0 5.383 0 12z" fill="#FFFFFF"></path><path fill-rule="evenodd" clip-rule="evenodd" d="M12.202 6c3.818-.01 7.44 3.11 7.534 7.033.038 1.591-.673 2.575-1.604 3.02-.374.18-.785.27-1.194.274a2.963 2.963 0 01-1.74-.535l.134 1.193c.099.891-.594 1.682-1.505 1.682h-3.25c-.91 0-1.604-.79-1.504-1.682l.133-1.193a2.963 2.963 0 01-1.74.536 2.844 2.844 0 01-1.193-.274c-.932-.446-1.643-1.43-1.605-3.021C4.763 9.11 8.385 5.99 12.202 6zm1.625 11.814c.407 0 .702-.339.658-.735-.071-.641-.223-1.514-.325-2.311-.083-.637-.294-1.702.202-2.197.552-.55 1.691-.473 2.17.081-2.634-.588-1.854 2.85.399 2.826.287-.003.574-.066.835-.19.652-.313 1.15-1.036 1.12-2.236-.083-3.436-3.292-6.21-6.684-6.202-3.393-.008-6.6 2.766-6.684 6.202-.03 1.2.469 1.923 1.12 2.235.262.125.549.188.836.19 2.252.025 3.033-3.414.399-2.825.478-.554 1.617-.632 2.169-.08.496.494.285 1.559.203 2.196-.103.797-.254 1.67-.325 2.31a.653.653 0 00.658.736h3.249z" fill="#FFFFFF"></path></svg>