<svg xmlns:xlink="http://www.w3.org/1999/xlink" xmlns="http://www.w3.org/2000/svg" width="24" height="24" viewBox="0 0 24 24" fill="currentColor"><path fill-rule="evenodd" clip-rule="evenodd" d="M.933 12C.933 18.1 5.9 23.067 12 23.067c6.1 0 11.067-4.967 11.067-11.067C23.067 5.9 18.1.933 12 .933 5.9.933.933 5.9.933 12zM0 12c0 6.62 5.38 12 12 12s12-5.387 12-12c0-6.62-5.38-12-12-12S0 5.38 0 12z" fill="#FFFFFF"></path><path d="M18.18 11.473c0-2.373-2.267-4.106-4.56-3.473-.1-.347-.187-.673-.26-.973h.693a.49.49 0 00.487-.487.49.49 0 00-.487-.487H13.3l.2-1.826a.487.487 0 00-.487-.54H10.42a.494.494 0 00-.487.54l.2 1.826H9.38a.49.49 0 00-.487.487c0 .267.22.487.487.487h.693C9.567 9.153 8.253 12.8 7.38 14.16c-1.66 2.573.1 6.073 3.2 6.14h2.18c2.967 0 4.76-3.12 3.56-5.673a3.625 3.625 0 001.86-3.154zM12.473 4.66l-.153 1.393h-1.207L10.96 4.66h1.513zm.287 14.667h-2.153c-2.307-.054-3.667-2.68-2.4-4.64.966-1.5 2.38-5.454 2.873-7.66h1.287c.466 2.106 1.873 6.106 2.873 7.66 1.273 1.973-.107 4.64-2.48 4.64zm3.073-5.547c-.62-1.12-1.38-3.1-1.933-4.847 1.667-.44 3.307.814 3.307 2.54 0 .967-.54 1.854-1.374 2.307z" fill="#FFFFFF"></path><path d="M12.633 14.26a.147.147 0 100-.293.147.147 0 000 .293zM10.26 14.7a.147.147 0 100-.293.147.147 0 000 .293zM12.333 16.333a.147.147 0 100-.293.147.147 0 000 .293z" fill="#FFFFFF"></path><path d="M13.373 13.22a2.507 2.507 0 00-1.78-.74c-.673 0-1.006.46-1.48.933-.473.474-1.04.914-1.04 1.587 0 .673.56.713 1.04 1.187.474.473.994.9 1.667.9s1.127.173 1.6-.307c.473-.473.393-1.213.393-1.887-.006-.673.08-1.2-.4-1.673zm-3.56 1.333a.447.447 0 11.894 0 .447.447 0 01-.894 0zm.74 1.547l-.206-.207.206-.206.207.206-.207.207zm.407-2.267l-.207-.206.207-.207.207.207-.207.206zm1.373 2.8a.447.447 0 110-.893.447.447 0 010 .893zm.3-2.08a.447.447 0 110-.893.447.447 0 010 .893zm.547.76l-.207-.206.207-.207.207.207-.207.206z" fill="#FFFFFF"></path><path d="M11.867 12.593a.127.127 0 100-.253.127.127 0 000 .253zM11.22 12.653a.127.127 0 100-.253.127.127 0 000 .253zM10.607 13.02a.127.127 0 100-.253.127.127 0 000 .253zM10.113 13.527a.127.127 0 100-.254.127.127 0 000 .254zM9.673 13.993a.127.127 0 100-.253.127.127 0 000 .253zM9.24 14.56a.127.127 0 100-.253.127.127 0 000 .253zM9.087 15.24a.127.127 0 100-.253.127.127 0 000 .253zM9.513 15.827a.127.127 0 100-.254.127.127 0 000 .254zM10.093 16.28a.127.127 0 100-.253.127.127 0 000 .253zM10.707 16.793a.127.127 0 100-.253.127.127 0 000 .253zM11.427 17.16a.127.127 0 100-.253.127.127 0 000 .253zM12.273 17.22a.127.127 0 100-.253.127.127 0 000 .253zM12.933 17.22a.127.127 0 100-.253.127.127 0 000 .253zM13.413 16.887a.127.127 0 100-.254.127.127 0 000 .254zM13.68 16.413a.127.127 0 100-.253.127.127 0 000 .253zM13.753 15.807a.127.127 0 100-.254.127.127 0 000 .254zM13.773 15.207a.127.127 0 100-.254.127.127 0 000 .254zM13.773 14.5a.127.127 0 100-.253.127.127 0 000 .253zM13.647 13.773a.127.127 0 100-.253.127.127 0 000 .253zM12.353 12.72a.127.127 0 100-.253.127.127 0 000 .253zM12.807 12.94a.127.127 0 100-.253.127.127 0 000 .253zM13.22 13.24a.127.127 0 100-.253.127.127 0 000 .253zM7.94 8.667V8.66c-.007-.02-.007-.047-.013-.067l-.174-.966-.66.733a.746.746 0 00-.2.347c-.1.353.047.713.327.793.287.08.593-.14.7-.5a.813.813 0 00.02-.333z" fill="#FFFFFF"></path></svg>