<svg xmlns:xlink="http://www.w3.org/1999/xlink" xmlns="http://www.w3.org/2000/svg" width="24" height="24" viewBox="0 0 24 24" fill="currentColor"><path fill-rule="evenodd" clip-rule="evenodd" d="M.933 12C.933 18.1 5.9 23.067 12 23.067c6.102 0 11.067-4.966 11.067-11.067S18.102.933 12 .933C5.9.933.933 5.9.933 12zM0 12c0 6.617 5.383 12 12 12s12-5.383 12-12S18.617 0 12 0 0 5.383 0 12z" fill="#FFFFFF"></path><path d="M16.6 8.2c-.6-.467-1.267-.667-2-.667-.733 0-1.467.134-2.067.267-.2.067-.4.067-.533.067 0-.134-.067-.267-.067-.4l.934-.134A2.97 2.97 0 0015.4 4.8s.133-1.067.133-1.133l-.066-.334-1.534.2A2.97 2.97 0 0011.4 6.067v.4c-.333-.467-.733-.934-1.267-1.2-.133-.134-.333-.067-.4.133-.066.133 0 .333.134.467.733.4 1.2 1.2 1.4 2.066-.067 0-.2 0-.267-.066-.667-.134-1.4-.334-2.067-.267-.733 0-1.4.2-2 .667-1.133.8-1.6 2.4-1.6 4.933 0 1.867 1.067 4.067 2.6 5.267 1 .8 2.067 1.133 3.134.866.466-.133.933-.133 1.333 0 .2.067.467.067.667.067.8 0 1.666-.333 2.466-.933 1.534-1.2 2.6-3.4 2.6-5.267 0-2.533-.466-4.133-1.533-5zm-3.933-1.467l1.933-2V4.8c-.133 1-.933 1.8-1.933 1.933zM14.2 4.2l-2.133 2.133V6.2C12.2 5.2 13 4.4 14 4.267l.2-.067zm-3.267 14.533c-1.066.2-2-.333-2.6-.8l.067-.066C7.067 16.8 6.067 14.8 6.067 13.133c0-1.133.066-2.133.333-2.866.2-.734.533-1.267.933-1.6.734-.6 1.8-.667 3.534-.2.133.066.333.133.466.133v.333c0 .067.067.2.134.2-.2 0-.4-.066-.534-.266a.322.322 0 00-.466 0 .322.322 0 000 .466c.333.334.733.534 1.2.534.466 0 .933-.2 1.2-.534a.322.322 0 000-.466.322.322 0 00-.467 0c-.133.133-.333.2-.467.266C12 9.067 12 9 12 8.867v-.334c.2 0 .4-.066.6-.066 1.733-.4 2.8-.334 3.533.2.4.333.734.866.934 1.6.2.733.333 1.666.333 2.866h-.067c0 1.667-1 3.667-2.333 4.734-.6.466-1.533 1-2.6.733-.267-.067-.533-.067-.8-.067-.133.067-.4.067-.667.2z" fill="#FFFFFF"></path><path d="M9.133 8.8c-1.4 0-2.466 1.2-2.466 2.733 0 .2.133.334.333.334s.333-.134.333-.334c0-1.133.8-2.066 1.8-2.066.2 0 .334-.134.334-.334S9.332 8.8 9.133 8.8z" fill="#FFFFFF"></path></svg>