<svg xmlns:xlink="http://www.w3.org/1999/xlink" xmlns="http://www.w3.org/2000/svg" width="24" height="24" viewBox="0 0 24 24" fill="currentColor"><path fill-rule="evenodd" clip-rule="evenodd" d="M.84 12c0 6.153 5.007 11.16 11.16 11.16 6.153 0 11.16-5.007 11.16-11.16C23.16 5.847 18.153.84 12 .84 5.847.84.84 5.847.84 12zM0 12c0 6.617 5.383 12 12 12s12-5.383 12-12S18.617 0 12 0 0 5.383 0 12z" fill="#FFFFFF"></path><path fill-rule="evenodd" clip-rule="evenodd" d="M11.81 4.484c-.314.324-1.001 1.138-1.022 2.083-.021.95.628 1.79.928 2.127.316-.324 1.002-1.134 1.024-2.084.02-.944-.629-1.787-.93-2.126zm-.101 5.192a.657.657 0 01-.455-.181c-.072-.068-1.39-1.34-1.354-2.948.035-1.583 1.337-2.756 1.485-2.885a.662.662 0 01.887.02c.143.135 1.39 1.365 1.356 2.948-.037 1.618-1.428 2.835-1.487 2.886a.66.66 0 01-.432.16zM7.456 15.451zm.263.022c.031.548.195 1.866 1.015 2.756.938 1.018 1.956 1.18 2.576 1.157-.027-.77-.35-3.564-3.591-3.912zm4.48 4.143v0zm-.99.66c-.803 0-2.02-.244-3.128-1.445-1.302-1.412-1.258-3.614-1.258-3.637a.656.656 0 01.212-.461.654.654 0 01.478-.168c2.505.16 3.65 1.525 4.17 2.643.489 1.053.519 2.073.517 2.344a.486.486 0 01-.011.425.48.48 0 01-.355.247c-.155.027-.37.052-.625.052z" fill="#FFFFFF"></path><path fill-rule="evenodd" clip-rule="evenodd" d="M16.071 15.451zm-3.854 3.935c.62.022 1.638-.14 2.576-1.157.81-.878.979-2.203 1.014-2.755-3.239.348-3.563 3.137-3.59 3.912zm.102.89c-.256 0-.47-.025-.625-.051a.48.48 0 01-.355-.248.486.486 0 01-.013-.423c-.043-1.364.705-4.735 4.687-4.989a.65.65 0 01.69.626c.002.024.05 2.222-1.257 3.64-1.107 1.201-2.324 1.445-3.127 1.445z" fill="#FFFFFF"></path><path fill-rule="evenodd" clip-rule="evenodd" d="M8.067 11.906zm3.635 3.513h-.001.001zm-.72.013l.112.001c.068.001.14.005.232.002-.015-.704-.268-3.094-2.995-3.497.022.503.148 1.634.825 2.401.685.776 1.631 1.044 1.827 1.093zm1.227.26v0zm-.88.631l-.247-.002-.24-.01c-.056-.012-1.385-.29-2.352-1.384-1.16-1.315-1.05-3.28-1.048-3.3a.65.65 0 01.708-.605c3.537.336 4.13 3.387 4.063 4.615a.5.5 0 01-.031.431.482.482 0 01-.36.231c-.139.02-.318.024-.493.024z" fill="#FFFFFF"></path><path fill-rule="evenodd" clip-rule="evenodd" d="M15.461 11.906zm-3.636 3.513zm.378.016c.077-.004.163-.001.23-.002h.112c.193-.049 1.14-.317 1.826-1.094.676-.765.803-1.898.825-2.4-2.719.4-2.977 2.779-2.993 3.496zm-.884.261v0zm.88.627c-.175 0-.355-.005-.495-.024a.481.481 0 01-.358-.23.498.498 0 01-.031-.433c-.066-1.231.528-4.278 4.062-4.614a.652.652 0 01.709.603c.002.024.103 1.996-1.049 3.301-.966 1.096-2.296 1.373-2.352 1.385l-.087.009h-.153c-.077.002-.16.003-.245.003zM8.908 7.971v.001zm-.03.256c-.042.498-.051 1.617.582 2.37.63.75 1.234 1.132 1.845 1.168.053-.675.028-2.882-2.427-3.538zm2.633 3.54h-.002.002zm-.111.889h-.001c-.922 0-1.778-.487-2.619-1.487-1.095-1.303-.762-3.267-.747-3.35a.648.648 0 01.275-.425c.142-.097.324-.133.496-.097 3.364.704 3.55 3.803 3.351 4.832a.653.653 0 01-.62.525l-.136.002z" fill="#FFFFFF"></path><path fill-rule="evenodd" clip-rule="evenodd" d="M14.62 7.974zm.03.253c-2.448.654-2.48 2.849-2.427 3.538.611-.036 1.216-.419 1.845-1.167.633-.754.624-1.875.582-2.371zm-2.635 3.54h0zm.114.889c-.046 0-.091-.001-.137-.003a.652.652 0 01-.62-.523c-.202-1.029-.023-4.126 3.351-4.833a.65.65 0 01.772.523c.014.082.347 2.046-.747 3.349-.841 1-1.698 1.487-2.62 1.487z" fill="#FFFFFF"></path></svg>