<svg xmlns:xlink="http://www.w3.org/1999/xlink" xmlns="http://www.w3.org/2000/svg" width="24" height="24" viewBox="0 0 24 24" fill="currentColor"><path fill-rule="evenodd" clip-rule="evenodd" d="M.933 12C.933 18.1 5.9 23.067 12 23.067c6.102 0 11.067-4.966 11.067-11.067S18.102.933 12 .933C5.9.933.933 5.9.933 12zM0 12c0 6.617 5.383 12 12 12s12-5.383 12-12S18.617 0 12 0 0 5.383 0 12z" fill="#FFFFFF"></path><path fill-rule="evenodd" clip-rule="evenodd" d="M13.431 17.056c.033.128.235.85.814 1.377.303.28.697.425 1.107.398a1.501 1.501 0 001.387-1.723.396.396 0 01.272-.437c.025-.008.049-.02.072-.03l.051-.022a.42.42 0 01.06-.02 1.313 1.313 0 00.74-2.07.397.397 0 01.235-.627 1.636 1.636 0 001.293-1.694 1.641 1.641 0 00-1.015-1.414.396.396 0 01-.132-.647 1.16 1.16 0 00-.819-1.977l-.035.001a.398.398 0 01-.337-.622s.205-.316.178-.766a1.208 1.208 0 00-1.276-1.133 1.21 1.21 0 00-1.129 1.28c.01.178-.043.942-.5 1.43a1.202 1.202 0 01-.898.389c-.608 0-1.012-.37-1.27-.853-.257.483-.66.853-1.27.853-.348 0-.658-.134-.896-.389-.458-.488-.512-1.252-.501-1.43a1.203 1.203 0 00-1.13-1.28 1.212 1.212 0 00-1.275 1.133c-.027.448.176.763.178.766a.398.398 0 01-.337.622h-.036a1.159 1.159 0 00-.818 1.976.397.397 0 01-.132.647c-.579.236-.977.79-1.015 1.414a1.637 1.637 0 001.293 1.694.395.395 0 01.236.627 1.313 1.313 0 00.74 2.07.43.43 0 01.06.02l.05.022c.024.01.047.022.072.03a.396.396 0 01.273.438 1.501 1.501 0 001.387 1.723c.41.026.803-.119 1.104-.397.58-.528.783-1.248.816-1.38.043-.464.34-1.285 1.201-1.285.862 0 1.16.821 1.202 1.286zm-4.308 2.759a2.352 2.352 0 01-2.345-2.364 2.159 2.159 0 01-1.315-2.877 2.5 2.5 0 01-1.458-2.417 2.502 2.502 0 011.09-1.91 2.005 2.005 0 011.2-2.92 2.254 2.254 0 01-.075-.732A2.05 2.05 0 018.385 4.67a2.03 2.03 0 011.408.688c.362.41.543.938.51 1.485-.006.105.056.607.296.861a.42.42 0 00.329.142c.79 0 .896-1.688.897-1.705a.406.406 0 01.81 0c0 .016.111 1.705.896 1.705a.42.42 0 00.33-.142c.24-.254.301-.756.295-.861a2.053 2.053 0 011.917-2.173 2.048 2.048 0 012.166 1.924c.017.282-.02.53-.076.732a2.004 2.004 0 011.2 2.92 2.502 2.502 0 011.091 1.91 2.5 2.5 0 01-1.457 2.417c.09.219.144.453.158.694a2.16 2.16 0 01-1.473 2.184 2.353 2.353 0 01-2.345 2.363 2.333 2.333 0 01-1.588-.625c-.848-.773-1.076-1.82-1.085-1.865a.42.42 0 01-.008-.056c-.002-.023-.05-.596-.427-.596-.375 0-.424.573-.426.598a.449.449 0 01-.008.054c-.009.045-.236 1.092-1.087 1.868a2.33 2.33 0 01-1.585.622z" fill="#FFFFFF"></path><path fill-rule="evenodd" clip-rule="evenodd" d="M15.813 14.627a.406.406 0 01-.081-.805.815.815 0 00.644-.844.807.807 0 00-.506-.704.407.407 0 01.304-.754c.577.234.973.787 1.01 1.409.05.8-.505 1.527-1.289 1.69a.397.397 0 01-.082.008zM8.432 12.596a.42.42 0 01-.082-.008 1.632 1.632 0 01-1.29-1.69 1.633 1.633 0 011.011-1.409.407.407 0 01.304.754.806.806 0 00-.506.704c-.024.4.253.763.645.844a.407.407 0 01-.082.805zM12.23 16.522a.406.406 0 01-.406-.407V6.159a.406.406 0 11.81 0v9.956a.406.406 0 01-.405.407z" fill="#FFFFFF"></path></svg>