<svg xmlns:xlink="http://www.w3.org/1999/xlink" xmlns="http://www.w3.org/2000/svg" width="24" height="24" viewBox="0 0 24 24" fill="currentColor"><path fill-rule="evenodd" clip-rule="evenodd" d="M.933 12C.933 18.1 5.9 23.067 12 23.067c6.102 0 11.067-4.966 11.067-11.067S18.102.933 12 .933C5.9.933.933 5.9.933 12zM0 12c0 6.617 5.383 12 12 12s12-5.383 12-12S18.617 0 12 0 0 5.383 0 12z" fill="#FFFFFF"></path><path fill-rule="evenodd" clip-rule="evenodd" d="M17.34 14.183c-.212.16-.44.316-.676.465a3.923 3.923 0 01-.543-1.981c0-.725.203-1.398.544-1.984.313.197.608.41.878.624a12.277 12.277 0 011.45 1.36c-.317.35-.9.948-1.653 1.516zm-1.566.951c-.689.32-1.429.535-2.178.533-1.456.006-2.889-.798-3.947-1.64a12.278 12.278 0 01-1.45-1.36c.317-.35.899-.948 1.653-1.516 1.035-.785 2.379-1.489 3.744-1.484.749-.003 1.49.21 2.18.53a4.932 4.932 0 00-.001 4.937zM5.01 14.253V11.08l1.602 1.586-1.602 1.586zm13.164-3.727c-1.151-.907-2.749-1.853-4.578-1.86-1.83.007-3.427.953-4.578 1.86-.744.59-1.3 1.17-1.609 1.516L4.862 9.52a.509.509 0 00-.55-.108.5.5 0 00-.312.462v5.586a.5.5 0 00.312.462.51.51 0 00.55-.109l2.547-2.521c.308.345.865.925 1.61 1.515 1.15.908 2.748 1.854 4.577 1.86 1.83-.006 3.427-.952 4.578-1.86 1.151-.913 1.864-1.813 1.88-1.832a.495.495 0 000-.617c-.016-.019-.729-.919-1.88-1.832z" fill="#FFFFFF"></path><path fill-rule="evenodd" clip-rule="evenodd" d="M17.636 11.667a.503.503 0 00-.505.5c0 .276.227.5.505.5a.503.503 0 00.505-.5c0-.276-.226-.5-.505-.5zM13.596 12.667a.503.503 0 00.505-.5c0-.276-.226-.5-.505-.5a1.509 1.509 0 00-1.515 1.5 1.509 1.509 0 001.515 1.5.503.503 0 00.505-.5c0-.276-.226-.5-.505-.5a.506.506 0 01-.505-.5c0-.274.228-.5.505-.5z" fill="#FFFFFF"></path></svg>