<svg xmlns:xlink="http://www.w3.org/1999/xlink" xmlns="http://www.w3.org/2000/svg" width="24" height="24" viewBox="0 0 24 24" fill="currentColor"><path fill-rule="evenodd" clip-rule="evenodd" d="M.933 12C.933 18.1 5.9 23.067 12 23.067c6.102 0 11.067-4.966 11.067-11.067S18.102.933 12 .933C5.9.933.933 5.9.933 12zM0 12c0 6.617 5.383 12 12 12s12-5.383 12-12S18.617 0 12 0 0 5.383 0 12z" fill="#FFFFFF"></path><path fill-rule="evenodd" clip-rule="evenodd" d="M15.82 17.727h.005c.819.008 1.753.072 2.47.725a.18.18 0 00.125.055.17.17 0 00.17-.168.166.166 0 00-.052-.12c-.112-.103-.687-.72-.735-2.46l.001-.038c.005-.058.01-.116.01-.176 0-.665-.302-1.286-.829-1.704a2.224 2.224 0 00-.833-.427c-.433-.123-.752-.242-1-.437-.324-.266-.478-.624-.644-1.19a2.208 2.208 0 00-.786-1.157 2.226 2.226 0 00-.798-.398c-.433-.123-.754-.242-1-.437-.324-.266-.477-.623-.643-1.184a2.19 2.19 0 00-.674-1.07 2.236 2.236 0 00-1.725-.554c-.82-.008-1.754-.071-2.47-.725a.18.18 0 00-.127-.055.169.169 0 00-.17.168c0 .06.033.102.053.12v.001c.118.111.687.737.734 2.459v.038c-.005.058-.01.116-.01.176 0 .665.302 1.286.828 1.705a2.227 2.227 0 00.834.426c.432.123.752.242 1 .437.324.267.478.625.644 1.19l.01.028c.128.443.404.844.776 1.128a2.228 2.228 0 00.796.399c.435.124.757.243 1.003.439.323.266.476.622.64 1.183.005.01.01.021.012.033.116.399.345.757.663 1.035a2.235 2.235 0 001.723.555zm2.6 1.48a.883.883 0 01-.615-.248c-.47-.427-1.103-.522-1.97-.532a2.949 2.949 0 01-2.21-.733 2.884 2.884 0 01-.874-1.363c-.151-.522-.253-.733-.418-.87-.136-.107-.349-.194-.783-.316a2.933 2.933 0 01-1.004-.51 2.913 2.913 0 01-1.022-1.486c-.152-.522-.254-.734-.42-.87-.156-.123-.426-.216-.782-.316a2.932 2.932 0 01-1.05-.546 2.863 2.863 0 01-1.08-2.461c-.044-1.473-.51-1.95-.515-1.954a.857.857 0 01-.272-.627.884.884 0 011.495-.62c.47.428 1.104.522 1.972.532a2.95 2.95 0 012.209.733 2.885 2.885 0 01.873 1.364c.152.522.254.733.42.87.154.122.425.215.781.316a2.933 2.933 0 011.004.51 2.912 2.912 0 011.022 1.485c.153.523.255.734.421.87.155.123.425.216.78.316a2.934 2.934 0 011.05.546 2.86 2.86 0 011.082 2.461c.044 1.473.51 1.95.514 1.955a.856.856 0 01.273.627.875.875 0 01-.88.867z" fill="#FFFFFF"></path><path fill-rule="evenodd" clip-rule="evenodd" d="M15.588 14.55c-.556 0-1.01.446-1.01.995 0 .549.454.995 1.01.995.557 0 1.01-.446 1.01-.995 0-.549-.453-.995-1.01-.995zm0 2.69c-.948 0-1.72-.76-1.72-1.695 0-.934.772-1.695 1.72-1.695s1.72.76 1.72 1.695-.772 1.695-1.72 1.695zM12.36 11.369c-.556 0-1.01.446-1.01.995 0 .548.454.994 1.01.994.557 0 1.01-.446 1.01-.995 0-.548-.453-.994-1.01-.994zm0 2.69c-.948 0-1.72-.76-1.72-1.695s.772-1.695 1.72-1.695c.949 0 1.72.76 1.72 1.694 0 .935-.771 1.696-1.72 1.696zM9.133 8.187c-.557 0-1.01.446-1.01.995 0 .548.453.995 1.01.995.556 0 1.01-.447 1.01-.995 0-.549-.454-.995-1.01-.995zm0 2.69c-.948 0-1.72-.76-1.72-1.695s.772-1.695 1.72-1.695 1.72.76 1.72 1.695c0 .934-.772 1.695-1.72 1.695z" fill="#FFFFFF"></path></svg>